<svg height="auto" viewBox="0 0 2000 200" xmlns="http://www.w3.org/2000/svg"><path d="M0 199.75c21-1.433 63-3.965 105-7.163 42-3.2 63-6.291 105-8.83 42-2.54 63 .215 105-3.868s63-12.62 105-16.546c42-3.927 63-3.688 105-3.086 42 .603 63 6.322 105 6.099 42-.224 63-1.506 105-7.216s63-15.94 105-21.336c42-5.396 63-1.92 105-5.646s63-3.013 105-12.987 63-27.468 105-36.881c42-9.414 63-8.862 105-10.187 42-1.325 63 3.435 105 3.563 42 .128 63-9.939 105-2.921 42 7.017 63 43.023 105 38.007 42-5.016 63-57.816 105-63.086 42-5.27 63 39.119 105 36.735 42-2.384 63-40.207 105-48.655 42-8.449 84 5.13 105 6.414l5 157.84H0Z" fill="#f745451a"/><path d="M0 199.75c21-1.433 63-3.965 105-7.163 42-3.2 63-6.291 105-8.83 42-2.54 63 .215 105-3.868s63-12.62 105-16.546c42-3.927 63-3.688 105-3.086 42 .603 63 6.322 105 6.099 42-.224 63-1.506 105-7.216s63-15.94 105-21.336c42-5.396 63-1.92 105-5.646s63-3.013 105-12.987 63-27.468 105-36.881c42-9.414 63-8.862 105-10.187 42-1.325 63 3.435 105 3.563 42 .128 63-9.939 105-2.921 42 7.017 63 43.023 105 38.007 42-5.016 63-57.816 105-63.086 42-5.27 63 39.119 105 36.735 42-2.384 63-40.207 105-48.655 42-8.449 84 5.13 105 6.414" fill="none" stroke="#f74545" stroke-width="4"/><g fill="#f74545"><circle cy="199.75" r="8"/><circle cx="105" cy="192.587" r="8"/><circle cx="210" cy="183.756" r="8"/><circle cx="315" cy="179.889" r="8"/><circle cx="420" cy="163.343" r="8"/><circle cx="525" cy="160.257" r="8"/><circle cx="630" cy="166.356" r="8"/><circle cx="735" cy="159.14" r="8"/><circle cx="840" cy="137.804" r="8"/><circle cx="945" cy="132.158" r="8"/><circle cx="1050" cy="119.171" r="8"/><circle cx="1155" cy="82.29" r="8"/><circle cx="1260" cy="72.103" r="8"/><circle cx="1365" cy="75.666" r="8"/><circle cx="1470" cy="72.745" r="8"/><circle cx="1575" cy="110.752" r="8"/><circle cx="1680" cy="47.666" r="8"/><circle cx="1785" cy="84.401" r="8"/><circle cx="1890" cy="35.746" r="8"/><circle cx="1995" cy="42.16" r="8"/></g></svg>