<svg height="auto" viewBox="0 0 2600 1100" xmlns="http://www.w3.org/2000/svg"><path d="M0 1099.206c27.4-8.6 82.2-20.324 137-43.002 54.8-22.677 82.2-51.294 137-70.386 54.8-19.093 82.2-9.35 137-25.076s82.2-35.202 137-53.55c54.8-18.349 82.2-13.42 137-38.19 54.8-24.771 82.2-88.258 137-85.663 54.8 2.596 82.2 118.665 137 98.64 54.8-20.024 82.2-176.291 137-198.763 54.8-22.472 82.2 69.247 137 86.405 54.8 17.157 82.2 42.53 137-.62s82.2-165.377 137-215.13c54.8-49.753 82.2 7.78 137-33.636 54.8-41.416 82.2-198.937 137-173.443s82.2 285.36 137 300.912c54.8 15.551 82.2-148.455 137-223.156 54.8-74.702 82.2-112.93 137-150.35 54.8-37.422 82.2-79.979 137-36.756 54.8 43.222 82.2 210.978 137 252.868 54.8 41.89 109.6-34.735 137-43.418L2600 1100H0Z" fill="#f745451a"/><path d="M0 1099.206c27.4-8.6 82.2-20.324 137-43.002 54.8-22.677 82.2-51.294 137-70.386 54.8-19.093 82.2-9.35 137-25.076s82.2-35.202 137-53.55c54.8-18.349 82.2-13.42 137-38.19 54.8-24.771 82.2-88.258 137-85.663 54.8 2.596 82.2 118.665 137 98.64 54.8-20.024 82.2-176.291 137-198.763 54.8-22.472 82.2 69.247 137 86.405 54.8 17.157 82.2 42.53 137-.62s82.2-165.377 137-215.13c54.8-49.753 82.2 7.78 137-33.636 54.8-41.416 82.2-198.937 137-173.443s82.2 285.36 137 300.912c54.8 15.551 82.2-148.455 137-223.156 54.8-74.702 82.2-112.93 137-150.35 54.8-37.422 82.2-79.979 137-36.756 54.8 43.222 82.2 210.978 137 252.868 54.8 41.89 109.6-34.735 137-43.418" fill="none" stroke="#f74545" stroke-width="4"/><g fill="#f74545"><circle cy="1099.206" r="8"/><circle cx="137" cy="1056.204" r="8"/><circle cx="274" cy="985.818" r="8"/><circle cx="411" cy="960.742" r="8"/><circle cx="548" cy="907.191" r="8"/><circle cx="685" cy="869.001" r="8"/><circle cx="822" cy="783.339" r="8"/><circle cx="959" cy="881.979" r="8"/><circle cx="1096" cy="683.216" r="8"/><circle cx="1233" cy="769.621" r="8"/><circle cx="1370" cy="769.002" r="8"/><circle cx="1507" cy="553.871" r="8"/><circle cx="1644" cy="520.235" r="8"/><circle cx="1781" cy="346.792" r="8"/><circle cx="1918" cy="647.704" r="8"/><circle cx="2055" cy="424.548" r="8"/><circle cx="2192" cy="274.197" r="8"/><circle cx="2329" cy="237.442" r="8"/><circle cx="2466" cy="490.31" r="8"/><circle cx="2603" cy="446.892" r="8"/></g></svg>