<svg height="auto" viewBox="0 0 2600 1100" xmlns="http://www.w3.org/2000/svg"><path d="M0 582.053c27.4 32.655 82.2 214.528 137 163.274 54.8-51.254 82.2-399.005 137-419.544 54.8-20.538 82.2 249.669 137 316.852 54.8 67.184 82.2 55.7 137 19.065 54.8-36.635 82.2-245.856 137-202.24 54.8 43.617 82.2 449.59 137 420.322 54.8-29.267 82.2-534.605 137-566.656 54.8-32.052 82.2 392.92 137 406.401 54.8 13.482 82.2-327.27 137-338.992 54.8-11.722 82.2 192.694 137 280.383s82.2 267.05 137 158.062c54.8-108.987 82.2-646.604 137-702.997 54.8-56.394 82.2 315.532 137 421.03 54.8 105.499 82.2 130.524 137 106.461 54.8-24.063 82.2-164.565 137-226.776 54.8-62.21 82.2-30.416 137-84.277 54.8-53.861 82.2-258.655 137-185.028 54.8 73.628 82.2 554.342 137 553.166 54.8-1.177 109.6-447.239 137-559.049l-3 958.49H0Z" fill="#f745451a"/><path d="M0 582.053c27.4 32.655 82.2 214.528 137 163.274 54.8-51.254 82.2-399.005 137-419.544 54.8-20.538 82.2 249.669 137 316.852 54.8 67.184 82.2 55.7 137 19.065 54.8-36.635 82.2-245.856 137-202.24 54.8 43.617 82.2 449.59 137 420.322 54.8-29.267 82.2-534.605 137-566.656 54.8-32.052 82.2 392.92 137 406.401 54.8 13.482 82.2-327.27 137-338.992 54.8-11.722 82.2 192.694 137 280.383s82.2 267.05 137 158.062c54.8-108.987 82.2-646.604 137-702.997 54.8-56.394 82.2 315.532 137 421.03 54.8 105.499 82.2 130.524 137 106.461 54.8-24.063 82.2-164.565 137-226.776 54.8-62.21 82.2-30.416 137-84.277 54.8-53.861 82.2-258.655 137-185.028 54.8 73.628 82.2 554.342 137 553.166 54.8-1.177 109.6-447.239 137-559.049" fill="none" stroke="#f74545" stroke-width="4"/><g fill="#f74545"><circle cy="582.053" r="8"/><circle cx="137" cy="745.327" r="8"/><circle cx="274" cy="325.783" r="8"/><circle cx="411" cy="642.635" r="8"/><circle cx="548" cy="661.7" r="8"/><circle cx="685" cy="459.461" r="8"/><circle cx="822" cy="879.782" r="8"/><circle cx="959" cy="313.126" r="8"/><circle cx="1096" cy="719.527" r="8"/><circle cx="1233" cy="380.535" r="8"/><circle cx="1370" cy="660.918" r="8"/><circle cx="1507" cy="818.98" r="8"/><circle cx="1644" cy="115.983" r="8"/><circle cx="1781" cy="537.013" r="8"/><circle cx="1918" cy="643.474" r="8"/><circle cx="2055" cy="416.698" r="8"/><circle cx="2192" cy="332.421" r="8"/><circle cx="2329" cy="147.393" r="8"/><circle cx="2466" cy="700.559" r="8"/><circle cx="2603" cy="141.51" r="8"/></g></svg>