<svg height="auto" viewBox="0 0 2000 1400" xmlns="http://www.w3.org/2000/svg"><path d="M0 250.091c21 41.731 63 98.857 105 208.657 42 109.799 63 290.96 105 340.34 42 49.378 63 27.518 105-93.447s63-480.24 105-511.376c42-31.138 63 297.072 105 355.69 42 58.618 63-99.565 105-62.6 42 36.965 63 218.25 105 247.426 42 29.176 63-96.893 105-101.546 42-4.653 63 61.318 105 78.28 42 16.963 63-36.025 105 6.533s63 163.867 105 206.257c42 42.39 63-32.712 105 5.692 42 38.405 63 168.302 105 186.332s63 44.344 105-96.183c42-140.527 63-448.563 105-606.453 42-157.891 63-138.08 105-183 42-44.92 63-121.952 105-41.597 42 80.355 63 319.715 105 443.373 42 123.658 84 139.933 105 174.916l5 592.615H0Z" fill="#f745451a"/><path d="M0 250.091c21 41.731 63 98.857 105 208.657 42 109.799 63 290.96 105 340.34 42 49.378 63 27.518 105-93.447s63-480.24 105-511.376c42-31.138 63 297.072 105 355.69 42 58.618 63-99.565 105-62.6 42 36.965 63 218.25 105 247.426 42 29.176 63-96.893 105-101.546 42-4.653 63 61.318 105 78.28 42 16.963 63-36.025 105 6.533s63 163.867 105 206.257c42 42.39 63-32.712 105 5.692 42 38.405 63 168.302 105 186.332s63 44.344 105-96.183c42-140.527 63-448.563 105-606.453 42-157.891 63-138.08 105-183 42-44.92 63-121.952 105-41.597 42 80.355 63 319.715 105 443.373 42 123.658 84 139.933 105 174.916" fill="none" stroke="#f74545" stroke-width="4"/><g fill="#f74545"><circle cy="250.091" r="8"/><circle cx="105" cy="458.748" r="8"/><circle cx="210" cy="799.088" r="8"/><circle cx="315" cy="705.641" r="8"/><circle cx="420" cy="194.265" r="8"/><circle cx="525" cy="549.955" r="8"/><circle cx="630" cy="487.355" r="8"/><circle cx="735" cy="734.781" r="8"/><circle cx="840" cy="633.235" r="8"/><circle cx="945" cy="711.515" r="8"/><circle cx="1050" cy="718.048" r="8"/><circle cx="1155" cy="924.305" r="8"/><circle cx="1260" cy="929.997" r="8"/><circle cx="1365" cy="1116.329" r="8"/><circle cx="1470" cy="1020.146" r="8"/><circle cx="1575" cy="413.693" r="8"/><circle cx="1680" cy="230.693" r="8"/><circle cx="1785" cy="189.096" r="8"/><circle cx="1890" cy="632.469" r="8"/><circle cx="1995" cy="807.385" r="8"/></g></svg>