<svg height="auto" viewBox="0 0 2000 1400" xmlns="http://www.w3.org/2000/svg"><path d="M0 734.41c21 27.436 63 73.24 105 137.176 42 63.935 63 214.663 105 182.502 42-32.16 63-221.61 105-343.305 42-121.696 63-218.28 105-265.174 42-46.893 63 42.642 105 30.707 42-11.934 63-128.75 105-90.378 42 38.371 63 199.625 105 282.234 42 82.61 63 194.364 105 130.81 42-63.553 63-448.636 105-448.577 42 .058 63 421.529 105 448.87 42 27.34 63-211.992 105-312.165 42-100.174 63-190.667 105-188.703 42 1.964 63 50.12 105 198.52s63 592.468 105 543.48c42-48.986 63-656.497 105-788.416 42-131.918 63 28.7 105 128.825 42 100.126 63 357.351 105 371.803 42 14.452 63-330.866 105-299.543 42 31.323 84 364.928 105 456.16l5 490.764H0Z" fill="#f745451a"/><path d="M0 734.41c21 27.436 63 73.24 105 137.176 42 63.935 63 214.663 105 182.502 42-32.16 63-221.61 105-343.305 42-121.696 63-218.28 105-265.174 42-46.893 63 42.642 105 30.707 42-11.934 63-128.75 105-90.378 42 38.371 63 199.625 105 282.234 42 82.61 63 194.364 105 130.81 42-63.553 63-448.636 105-448.577 42 .058 63 421.529 105 448.87 42 27.34 63-211.992 105-312.165 42-100.174 63-190.667 105-188.703 42 1.964 63 50.12 105 198.52s63 592.468 105 543.48c42-48.986 63-656.497 105-788.416 42-131.918 63 28.7 105 128.825 42 100.126 63 357.351 105 371.803 42 14.452 63-330.866 105-299.543 42 31.323 84 364.928 105 456.16" fill="none" stroke="#f74545" stroke-width="4"/><g fill="#f74545"><circle cy="734.411" r="8"/><circle cx="105" cy="871.586" r="8"/><circle cx="210" cy="1054.088" r="8"/><circle cx="315" cy="710.783" r="8"/><circle cx="420" cy="445.609" r="8"/><circle cx="525" cy="476.316" r="8"/><circle cx="630" cy="385.938" r="8"/><circle cx="735" cy="668.172" r="8"/><circle cx="840" cy="798.982" r="8"/><circle cx="945" cy="350.405" r="8"/><circle cx="1050" cy="799.275" r="8"/><circle cx="1155" cy="487.11" r="8"/><circle cx="1260" cy="298.407" r="8"/><circle cx="1365" cy="496.927" r="8"/><circle cx="1470" cy="1040.408" r="8"/><circle cx="1575" cy="251.991" r="8"/><circle cx="1680" cy="380.816" r="8"/><circle cx="1785" cy="752.619" r="8"/><circle cx="1890" cy="453.076" r="8"/><circle cx="1995" cy="909.236" r="8"/></g></svg>