<svg height="auto" viewBox="0 0 2000 1400" xmlns="http://www.w3.org/2000/svg"><path d="M0 953.652c21-10.208 63 7.762 105-51.04s63-139.57 105-242.972c42-103.403 63-175.233 105-274.042 42-98.81 63-202.246 105-220.006 42-17.76 63 23.29 105 131.205 42 107.915 63 248.691 105 408.371 42 159.68 63 477.22 105 390.028 42-87.191 63-687.272 105-825.986 42-138.714 63 82.226 105 132.416s63 124.366 105 118.536c42-5.83 63-150.567 105-147.685 42 2.882 63 195.427 105 162.096 42-33.331 63-424.318 105-328.752 42 95.565 63 751.275 105 806.58 42 55.303 63-380.826 105-530.061s63-313.865 105-216.114 63 620.005 105 704.87c42 84.865 63-156.399 105-280.546 42-124.147 84-272.151 105-340.19l5 1049.64H0Z" fill="#f745451a"/><path d="M0 953.652c21-10.208 63 7.762 105-51.04s63-139.57 105-242.972c42-103.403 63-175.233 105-274.042 42-98.81 63-202.246 105-220.006 42-17.76 63 23.29 105 131.205 42 107.915 63 248.691 105 408.371 42 159.68 63 477.22 105 390.028 42-87.191 63-687.272 105-825.986 42-138.714 63 82.226 105 132.416s63 124.366 105 118.536c42-5.83 63-150.567 105-147.685 42 2.882 63 195.427 105 162.096 42-33.331 63-424.318 105-328.752 42 95.565 63 751.275 105 806.58 42 55.303 63-380.826 105-530.061s63-313.865 105-216.114 63 620.005 105 704.87c42 84.865 63-156.399 105-280.546 42-124.147 84-272.151 105-340.19" fill="none" stroke="#f74545" stroke-width="4"/><g fill="#f74545"><circle cy="953.652" r="8"/><circle cx="105" cy="902.612" r="8"/><circle cx="210" cy="659.64" r="8"/><circle cx="315" cy="385.598" r="8"/><circle cx="420" cy="165.592" r="8"/><circle cx="525" cy="296.797" r="8"/><circle cx="630" cy="705.168" r="8"/><circle cx="735" cy="1095.196" r="8"/><circle cx="840" cy="269.21" r="8"/><circle cx="945" cy="401.626" r="8"/><circle cx="1050" cy="520.162" r="8"/><circle cx="1155" cy="372.477" r="8"/><circle cx="1260" cy="534.573" r="8"/><circle cx="1365" cy="205.821" r="8"/><circle cx="1470" cy="1012.4" r="8"/><circle cx="1575" cy="482.34" r="8"/><circle cx="1680" cy="266.226" r="8"/><circle cx="1785" cy="971.096" r="8"/><circle cx="1890" cy="690.55" r="8"/><circle cx="1995" cy="350.361" r="8"/></g></svg>